<?xml version="1.0" standalone="no"?>
<!DOCTYPE svg PUBLIC "-//W3C//DTD SVG 20010904//EN"
 "http://www.w3.org/TR/2001/REC-SVG-20010904/DTD/svg10.dtd">
<svg version="1.0" xmlns="http://www.w3.org/2000/svg"
 width="292.000000pt" height="292.000000pt" viewBox="0 0 292.000000 292.000000"
 preserveAspectRatio="xMidYMid meet">
<metadata>
Created by potrace 1.11, written by Peter Selinger 2001-2013
</metadata>
<g transform="translate(0.000000,292.000000) scale(0.100000,-0.100000)"
fill="#000000" stroke="none">
<path d="M1297 2903 c-3 -2 -24 -6 -48 -9 -56 -6 -84 -11 -84 -14 0 -1 -9 -3
-20 -5 -80 -13 -203 -53 -223 -72 -7 -7 -19 -10 -27 -7 -8 4 -15 1 -15 -7 0
-7 -3 -9 -6 -6 -7 7 -84 -31 -95 -46 -3 -5 -10 -9 -15 -9 -25 -3 -43 -11 -38
-19 3 -5 -4 -9 -15 -9 -12 0 -21 -4 -21 -10 0 -5 -7 -10 -16 -10 -9 0 -12 -5
-8 -12 4 -6 3 -8 -3 -5 -12 7 -66 -27 -56 -36 3 -4 0 -7 -9 -7 -8 0 -28 -12
-44 -26 -16 -14 -39 -32 -51 -41 -13 -8 -20 -19 -17 -24 3 -5 -1 -9 -8 -9 -8
0 -38 -26 -68 -58 -68 -72 -101 -112 -95 -112 3 0 -3 -8 -13 -18 -35 -38 -61
-76 -56 -84 3 -4 0 -8 -5 -8 -6 0 -11 -4 -11 -10 0 -5 -9 -19 -20 -30 -12 -12
-18 -25 -15 -30 3 -4 2 -10 -3 -12 -8 -3 -53 -94 -51 -104 0 -4 -4 -10 -11
-14 -6 -4 -13 -13 -14 -21 -2 -8 -6 -21 -9 -29 -21 -52 -60 -179 -61 -202 0
-16 -3 -28 -6 -28 -3 0 -6 -10 -6 -22 -1 -13 -4 -39 -8 -58 -24 -120 -24 -279
-1 -445 5 -39 8 -55 21 -113 3 -15 7 -32 8 -39 1 -7 5 -16 9 -19 4 -4 7 -13 7
-20 0 -7 5 -25 12 -41 6 -15 10 -34 9 -40 -1 -7 4 -13 10 -13 7 0 10 -3 6 -6
-3 -4 1 -21 10 -38 10 -17 18 -33 19 -36 1 -3 5 -15 9 -28 4 -12 12 -22 17
-22 5 0 7 -4 3 -9 -3 -5 2 -17 11 -25 8 -9 12 -16 8 -16 -4 0 0 -8 8 -17 9
-10 18 -27 22 -38 3 -11 17 -32 31 -47 14 -15 25 -31 25 -36 0 -5 9 -17 20
-27 11 -10 17 -22 14 -26 -3 -5 2 -9 11 -9 9 0 14 -4 10 -9 -3 -5 5 -17 17
-25 12 -9 19 -16 15 -16 -15 0 204 -209 233 -222 16 -7 30 -16 30 -20 0 -5 6
-8 13 -8 8 0 24 -11 37 -25 12 -13 26 -22 30 -20 4 3 20 -6 36 -20 15 -13 31
-22 36 -19 4 3 8 0 8 -7 0 -7 3 -9 6 -6 4 4 20 -3 35 -14 16 -11 29 -17 29
-14 0 3 12 -2 28 -13 26 -19 171 -74 202 -77 8 -1 31 -7 51 -14 20 -6 63 -14
95 -16 33 -3 77 -7 99 -10 84 -10 305 -4 365 10 14 4 36 8 50 10 14 2 36 6 50
10 14 3 30 7 37 9 7 1 15 5 19 8 3 4 12 4 20 1 8 -3 14 0 14 7 0 6 4 9 9 6 5
-3 26 2 47 11 22 9 44 18 49 19 50 15 105 38 105 45 0 5 7 9 16 9 33 0 280
161 267 174 -3 3 -1 6 5 6 6 0 26 13 44 30 18 16 36 30 40 30 3 0 9 9 13 20 3
11 9 19 13 17 4 -1 31 25 60 58 29 33 62 69 72 80 11 12 20 26 20 33 0 7 5 12
11 12 5 0 8 4 5 9 -3 5 1 12 10 15 9 4 14 9 11 12 -3 3 3 14 14 25 11 11 17
24 14 28 -2 5 2 11 10 15 8 3 15 15 15 26 0 11 5 20 12 20 6 0 9 3 5 6 -3 4 1
13 9 21 8 8 12 19 9 24 -4 5 -2 9 3 9 9 0 39 69 34 82 -1 4 2 8 8 8 5 0 10 8
10 18 0 10 3 22 7 26 4 3 8 12 9 19 1 7 9 32 17 57 40 121 61 263 60 415 0 91
-4 140 -19 263 -6 49 -48 201 -69 247 -7 16 -19 45 -26 63 -8 17 -17 32 -21
32 -5 0 -7 3 -6 8 3 13 -14 62 -22 62 -4 0 -15 20 -24 45 -10 25 -21 43 -25
41 -4 -3 -14 10 -21 29 -7 19 -17 32 -22 29 -4 -3 -8 3 -8 13 0 10 -9 25 -20
33 -11 8 -20 20 -20 28 0 7 -4 10 -10 7 -5 -3 -10 1 -10 9 0 9 -5 16 -11 16
-5 0 -7 5 -3 12 4 7 3 8 -5 4 -6 -4 -14 0 -18 11 -15 42 -234 241 -293 266 -8
4 -33 18 -55 31 -97 59 -257 130 -269 119 -3 -4 -6 -1 -6 6 0 7 -4 9 -10 6 -5
-3 -10 -2 -10 2 0 5 -12 10 -26 11 -15 1 -33 7 -40 13 -7 5 -18 9 -26 8 -7 -1
-31 2 -53 8 -22 7 -60 15 -85 19 -50 8 -377 14 -383 7z"/>
</g>
</svg>
